# xmcd
#
# Track frame offsets:
#	150
#	21573
#	35751
#	63068
#	83889
#	106877
#	123459
#	140069
#	152830
#	168592
#	187840
#	207315
#	230899
#	258762
#
# Disc length: 3698
#
# Revision: 1
# Processed by: cddbd v1.5.1PL0 Copyright (c) Steve Scherf et al.
# Submitted via: ExactAudioCopy v0.95a5
# Normalized: r0:DSETVAR1,TDELIM( - )
#
DISCID=c50e700e
DTITLE=Various Artist - Live At The Basement Vol. 2
DYEAR=2002
DGENRE=Blues
TTITLE0=Eric Bibb - I Heard The Angels Singin'
TTITLE1=Mark Seymour - El Dorado
TTITLE2=Chris Wilson - Bright Lights, Big City
TTITLE3=The Backsliders - Thinking Man's Drinking Man
TTITLE4=John Butler - Pickapart
TTITLE5=Brett Hunt - Life's What You Make It
TTITLE6=Ross Wilson - Cool World
TTITLE7=Steve Poltz - Beautiful Day
TTITLE8=Jimmy Barnes - I Put A Spell On You
TTITLE9=Doug Williams - My Girl
TTITLE10=The Badloves - Lost
TTITLE11=Harry Manx - The Weight
TTITLE12=Ray Beadle - The Good Life
TTITLE13=Richard Clapton - Best Years Of Our Lives
EXTD=
EXTT0=
EXTT1=
EXTT2=
EXTT3=
EXTT4=
EXTT5=
EXTT6=
EXTT7=
EXTT8=
EXTT9=
EXTT10=
EXTT11=
EXTT12=
EXTT13=
PLAYORDER=
